<svg xmlns="http://www.w3.org/2000/svg" viewBox="0 0 1080 1024" fill="currentColor" stroke="currentColor" overflow="visible">
  <path stroke-width="10" stroke-miterlimit="10" d="M522 620.4c-.3-10.2.7-19.9-.3-29.5-.5-4.7-2.1-7.8-7.3-10.4-50.9-25-101.6-50.1-152.3-75.2-57.4-28.4-114.8-56.9-172.2-85.2-8.2-4.1-16.7-7.9-24.8-11.7 1.4-3.3 4.3-3.9 6.7-4.9 63.4-27.3 126.9-54.4 190.1-81.9 8.2-3.6 13.7-3 19.7 2.2 6.9 6 16.4 10 23.1 17.9-50.9 22.4-101.2 44.5-152.6 67.1 10.1 6.9 20.2 11.2 29.8 16 66.8 33.3 133.8 66.4 200.7 99.6 18.3 9.1 36.7 18.2 54.8 27.5 4.1 2.1 6.8 2.2 11.2.1 75.6-37.6 151.4-75.1 227.2-112.6 18.3-9.1 36.6-18.3 54.8-27.5 1.4-.7 3-1.2 3.6-3.9-11-4.9-22.3-10.1-33.7-15-45.1-19.4-90.3-38.9-135.5-58.1-5.9-2.5-7.1-4.8-3-9.3 4.9-5.4 9.4-11.2 13.5-17 3.3-4.7 6.7-5.4 12.8-2.8 35.9 15.6 72.2 30.8 108.1 46.4 37.4 16.2 74.6 32.8 111.9 49.3 3.6 1.6 7.8 2.7 9.8 6-.6 3-3.9 3.7-6.4 4.9-41.4 20.1-82.1 41.2-123.5 61.3-58.4 28.4-116.2 57.6-174.3 86.4-14.5 7.2-29.1 14.3-43.7 21.5-3.2 1.6-5.6 3.1-5.6 6.7.1 28.9-.1 57.9-.1 86.8.1 54.5.3 109 .4 163.6 0 8.5-.7 17-.6 25.6.1 3.7-1.7 5.7-5.3 7.6-14.9 7.9-21.4 7.3-34.2-3-3.3-2.7-2.3-5.9-2.3-8.9-.1-76.5-.1-153-.2-229.6 0-3.1-.1-6.2-.3-10z" />
  <path d="M507.6 213.1c13.4 13 25.1 26.8 35.9 41.2 2.9 0 3.7-2.2 4.8-3.7 37.1-50.9 81-95.3 128.8-136 5.3-4.5 10.4-9.2 15.9-13.5 8-6.1 14.2-6 21.8.6 5.1 4.4 10 9.1 14.5 14.1 6.2 6.8 7 12.5 1.8 20.1-8.9 13.2-18.5 25.9-27.9 38.8-42.1 57.9-81.5 117.6-117.8 179.3-6.9 11.8-13.2 24-20.4 35.6-7.5 12-18.4 11.9-26 .2-23.9-36.6-51.1-70.4-84.4-99-8.7-7.5-17.9-14.2-27.6-20.3-11.5-7.3-12-20.3-1.4-29.1 15-12.5 30.9-23.8 47.3-34.5 13.1-8.6 19.5-8 31 2.7 1.1 1 2.2 2.1 3.7 3.5m-40.3 27.1c-6.4 4.8-12.8 9.6-19.8 14.9 41.9 30.5 74.2 68.5 103.2 109 3.3-1.1 3.9-2.9 4.8-4.4 13.6-24.5 27.8-48.7 42.5-72.6 32.8-53.1 68.9-103.9 107-153.3 4-5.2 2.6-7.6-2.3-10.5l-36 32.7c-40.9 37-77.7 77.7-109.2 123.1-8.3 12-18.6 11.8-26.6-.5-11.2-17.2-24-33-38.5-47.5-3.3-3.3-6.5-4.1-10.5-1-4.5 3.4-9.2 6.4-14.6 10.1M262.4 622.3c0 24 .3 47.3-.1 70.6-.1 6.8 2.4 10.8 10 14.4 67.5 32.8 134.7 66 202 99.1 4.8 2.4 7.2 5.1 7 9.8-.4 8.3-.1 16.6-.1 24.9 0 2.2.4 4.5-1.8 6.3-1.9.9-3.2 0-4.7-.7-67.6-33.1-135.1-66.3-202.8-99.4-15-7.4-30.1-14.7-45.4-21.7-5.5-2.5-7.8-5.4-7.8-10.7.2-76.5.1-153 .1-229.5 0-2.6-.8-5.4 1.5-7.6 1.9-1.1 3.5-.4 4.8.3 10.8 5.3 21.4 10.6 32.2 15.9 3.5 1.7 4.9 4 4.7 7.3-1.6 40 1 80.1.4 121z" />
  <path d="M546.1 440c33.9-15.9 67.2-31.5 100.5-47.1 5.6-2.6 11.2-5.4 18.1-2.8 6.1 2.3 9.6 6.2 9.9 11.6.3 5.9-3 10.3-9.3 13.3l-65.7 31.2c-22.4 10.6-45.1 20.8-67.1 31.9-11.3 5.7-20.6 5.3-31.6-.3-30.1-15.2-60.7-29.7-91.1-44.4-9.8-4.8-13.6-11.5-10.5-18.4 3.5-8 13-11.1 23.2-6.9 9.9 4.1 19.4 9 29 13.6 19.4 9.4 38.8 18.8 58 28.4 5.4 2.7 9.8 3.2 15.3.1 6.5-3.6 13.7-6.6 21.3-10.2zm281.5 182.3c-.6-40.9 2-81 .4-121-.2-3.3 1.2-5.6 4.7-7.3 10.8-5.3 21.4-10.6 32.2-15.9 1.3-.7 2.9-1.4 4.8-.3 2.3 2.2 1.5 5 1.5 7.6 0 76.5-.1 153 .1 229.5 0 5.3-2.3 8.2-7.8 10.7-15.3 7-30.4 14.3-45.4 21.7-67.7 33.1-135.2 66.3-202.8 99.4-1.5.7-2.8 1.6-4.7.7-2.2-1.8-1.8-4.1-1.8-6.3 0-8.3.3-16.6-.1-24.9-.2-4.7 2.2-7.4 7-9.8 67.3-33.1 134.5-66.3 202-99.1 7.6-3.6 10.1-7.6 10-14.4-.4-23.3-.1-46.6-.1-70.6z" />
</svg>